<?xml version="1.0" standalone="yes"?>
<svg xmlns="http://www.w3.org/2000/svg" width="816" height="240">
    <g fill="#041C4A" stroke="none">
        <path d="M0 0L0 240L816 240L816 0L218 0L218 1C250.392 3.82805 248.999 41.9894 241.656 65C221.981 126.653 186.2 182.258 156 239L155 239L124 190C111.432 203.124 100.841 223.119 92 239L91 239C60.8532 182.358 24.5708 126.688 5.34105 65C-1.84501 41.9477 -3.34372 2.52728 30 1L0 0z"/>
    </g>
    <path style="fill:#e3e3e5; stroke:none;" d="M91 239L92 239L124 190C131.196 206.679 143.931 224.598 155 239C167.192 228.625 174.733 207.006 182.309 193C203.687 153.476 226.098 112.748 240.333 70C246.309 52.056 252.342 23.9562 236.96 9.09335C214.546 -12.5637 171.74 5.46269 148 15.4244C141.018 18.3542 130.675 25.3349 123 25.0008C114.192 24.6173 103.071 17.2886 95 13.8503C72.7271 4.36227 40.5873 -7.62524 17 4.13504C-7.03403 16.118 0.600234 49.6565 6.57562 70C15.2555 99.551 31.0309 127.556 44.7531 155C58.7645 183.023 72.5456 213.598 91 239z"/>
    <path style="fill:#041C4A; stroke:none;" d="M49 0L49 1C66.8668 1.36876 84.8623 9.92419 101 16.8495C107.409 19.6001 115.987 25.0659 123 25.4082C130.306 25.7648 140.373 19.132 147 16.2809C162.589 9.57401 179.788 1.74095 197 1C185.544 -3.80707 165.468 0 153 0L49 0M92 227C105.785 206.566 122.274 184.022 131 161L154 196C164.143 185.166 170.62 167.254 177.247 154C191.19 126.113 206.23 98.3316 216.947 69C220.554 59.1274 230.774 32.7924 219.867 24.7276C206.094 14.5446 176.329 27.989 163 33.7191C157.986 35.8749 150.568 40.5858 145 39.7168C138.748 38.7412 132.97 34.4855 127 32.5031C103.138 24.5799 79.1015 11.8649 54 7.75386C41.453 5.69897 25.4114 4.0974 15.0934 13.3295C0.0459251 26.7932 8.05557 54.8178 13.6952 71C26.5206 107.801 45.9187 142.469 63.7415 177C71.9056 192.818 79.805 213.976 92 227z"/>
    <path style="fill:#e3e3e5; stroke:none;" d="M42 61L66.3079 101L115 177L117 177C120.409 171.848 128.213 163.348 128.213 157C128.213 149.319 117.754 138.318 113.692 132C100.738 111.849 86.6186 91.9482 75 71L122 51.4213L140 42L112 31.5386L90 40.1505L42 61M148 42L161 49.6944L195 64C191.743 72.5935 185.289 80.2314 180.424 88C170.77 103.418 161.012 118.811 151.003 134C145.754 141.966 134.33 153.528 140 163L141 163C155.159 141.995 168.066 120.151 182.003 99C189.576 87.5079 201.108 74.2259 205 61C188.732 54.6887 165.404 37.4071 148 42M259 86C260.36 102.65 268.006 119.96 272.579 136C274.512 142.782 274.645 150.722 283 151L299 93L300 93L316 151C324.355 150.722 324.488 142.782 326.421 136C330.979 120.015 338.556 102.56 340 86C333.082 86.5517 333.04 93.3207 331.421 99C327.415 113.057 321.27 128.436 320 143L319 143C314.458 128.796 310.51 114.341 306.421 100C304.476 93.1777 304.3 86.2724 296 86L280 143L279 143L264 86L259 86M388 87L388 90C394.134 91.0238 395.558 95.1815 395.94 101C396.742 113.238 398.389 130.189 394.843 141.995C393.445 146.647 388.262 146.683 387 151C405.101 151 425.936 155.622 441.999 144.895C459.961 132.9 459.819 102.209 440.999 91.1991C426.55 82.7462 403.948 84.9844 388 87M749 86C750.32 90.0205 753.793 90.4242 756.7 93.2276C761.616 97.9692 774.783 112.943 774.454 120C774.104 127.536 760.934 141.366 755 145.297C751.747 147.452 746.607 148.999 743.603 145.566C738.116 139.294 742 117.174 742 109L731.171 114.418L732.942 124L733 147L727 151L770 151L765 147L778 125L780 125L794 147L788 148L788 151L815 151L815 148C803.436 146.478 797.838 134.758 791.708 126C789.439 122.757 784.811 118.211 786.653 114C789.624 107.208 796.682 99.1361 802.018 94.0648C805.021 91.2118 809.82 90.0514 811 86L789 87L789 88L795 90L781 112L767 90L773 86L749 86z"/>
    <path style="fill:#041C4A; stroke:none;" d="M405 91C404.814 100.01 404 108.938 404 118C404 125.436 403.3 133.758 405.43 140.985C408.557 151.598 426.145 148.257 432.996 143.867C453.385 130.799 445.886 95.5515 423 90.669C417.092 89.4085 410.884 89.9076 405 91z"/>
    <path style="fill:#e3e3e5; stroke:none;" d="M467.434 91.0285C461.985 94.7392 468.112 103.089 473.566 99.6667C479.325 96.053 473.153 87.1333 467.434 91.0285M734.229 91.0324C728.276 94.5662 734.005 103.242 739.718 99.8056C745.381 96.3989 739.967 87.6263 734.229 91.0324M381 134L376 134C370.387 156.207 344.916 147.989 344 128L381 128C380.996 122.116 380.915 116.021 377.348 111.015C363.521 91.6086 340.307 108.094 339.594 127C339.311 134.522 340.98 142.62 347.043 147.606C360.093 158.34 378.636 149.773 381 134M697 114L697 116L703 117C703 125.288 700.055 140.566 704.179 147.891C708.506 155.578 721.818 152.584 724 145C706.606 148.521 711 129.28 711 117L724 117L724 112L711 112L711 105L697 114z"/>
    <path style="fill:#041C4A; stroke:none;" d="M344 124L377 124C371.576 103.265 348.652 101.757 344 124z"/>
    <path style="fill:#e3e3e5; stroke:none;" d="M463 114C466.521 122.114 470.025 134.918 466.397 143.892C465.19 146.879 462.105 147.943 461 151L481 151L475.434 142.945L476 109L463 114M568 151L588 151C586.458 146.378 583.106 144.389 583.005 139C582.936 135.338 582.976 131.663 583.001 128C583.052 120.581 590.427 111.501 597.566 119.279C603.095 125.301 601.992 145.192 594 148C597.477 153.364 609.181 151 615 151C613.805 147.697 610.244 146.453 609.318 142.956C605.927 130.143 613.996 106.262 591 111.529C588.102 112.193 585.558 113.546 583 115L583 109C565.628 112.311 575.989 128.633 573.852 141.985C573.196 146.085 569.312 147.371 568 151M523 146C505.116 146.915 523.972 115.665 508.985 111.434C502.591 109.628 494.878 111.913 490.109 116.329C488.534 117.788 485.549 120.981 487.137 123.356C488.371 125.204 491.308 124.157 492.702 123.137C495.234 121.286 495.876 117.507 499.058 116.407C504.319 114.588 507.724 121.719 506.677 125.956C504.571 134.483 477.122 134.717 487.742 148.772C492.637 155.249 499.816 150.025 505.715 149.605C512.247 149.14 519.981 156.168 523 146M533 137C527.408 142.659 522.862 149.513 533 153C530.118 155.89 526.114 158.999 524.782 163C522.656 169.387 528.483 174.613 534 176.211C542.929 178.796 555.483 176.159 561.606 168.906C573.651 154.635 558.776 147.006 546 147C543.324 146.999 534.87 147.791 535.631 143C536.477 137.68 545.411 139.374 548.996 138.146C557.008 135.402 559.483 126.602 558 119C562.226 118.985 565.278 119.284 567 115C558.534 112.498 542.339 108.231 534.004 112.457C524.431 117.311 522.985 132.074 533 137M633 111.638C607.15 119.11 620.521 159.19 647 151.2C671.995 143.658 659.188 104.068 633 111.638M666 138C666 141.819 665.105 147.263 668.434 149.991C675.107 155.458 690.185 151.911 691.771 142.999C693.309 134.35 687.214 130.35 681.005 126.049C678.331 124.197 674.316 120.865 676.801 117.294C681.27 110.871 687.719 120.687 692 122C691.94 119.103 692.182 115.047 690.062 112.742C685.362 107.635 671.384 111.158 668.858 117.043C663.087 130.488 680.528 131.721 683.593 141.015C685.577 147.033 677.817 148.727 674.105 145.681C670.945 143.088 670.001 139.365 666 138z"/>
    <path style="fill:#041C4A; stroke:none;" d="M541.018 114.851C531.27 117.596 534.252 137.028 544.956 134.663C554.797 132.488 550.768 112.106 541.018 114.851M638.001 114.758C623.592 117.08 626.112 150.166 641.999 147.756C656.568 145.547 653.233 112.303 638.001 114.758M507 134C504.967 134.471 502.949 134.945 500.999 135.715C487.094 141.203 503.188 152.872 506.566 140.986C507.197 138.767 506.993 136.281 507 134M539.005 154.742C524.056 160.562 540.072 175.794 551.996 170.347C568.556 162.783 550.667 150.202 539.005 154.742z"/>
</svg>
