<?xml version="1.0" standalone="no"?>
<!DOCTYPE svg PUBLIC "-//W3C//DTD SVG 20010904//EN"
 "http://www.w3.org/TR/2001/REC-SVG-20010904/DTD/svg10.dtd">
<svg version="1.0" xmlns="http://www.w3.org/2000/svg"
 width="5350.000000pt" height="925.000000pt" viewBox="0 0 5350.000000 925.000000"
 preserveAspectRatio="xMidYMid meet">

<g transform="translate(-287.000000,2100.000000) scale(0.100000,-0.100000)"
fill="#000000" stroke="none">
<path d="M4285 20703 c-325 -16 -645 -155 -837 -361 -150 -163 -252 -392 -289
-652 -16 -111 -16 -454 0 -600 18 -168 67 -424 112 -580 10 -36 34 -121 54
-190 37 -136 119 -390 134 -418 6 -9 16 -37 25 -62 8 -25 29 -81 46 -125 17
-44 36 -93 41 -110 5 -16 15 -43 24 -60 8 -16 28 -64 45 -105 17 -41 38 -88
45 -105 8 -16 38 -84 66 -150 29 -66 76 -172 106 -235 30 -63 74 -158 98 -210
23 -52 71 -153 105 -225 34 -71 82 -173 107 -225 25 -52 66 -138 91 -190 70
-146 541 -1103 551 -1120 5 -8 51 -96 101 -195 92 -182 186 -363 287 -555 31
-58 79 -150 108 -205 29 -55 68 -129 87 -165 19 -36 59 -110 88 -165 29 -55
68 -126 87 -159 18 -32 40 -72 48 -90 8 -17 19 -38 24 -46 6 -8 85 -150 176
-315 91 -165 170 -307 175 -315 5 -8 59 -103 120 -210 61 -107 123 -216 138
-241 15 -25 56 -96 92 -158 36 -61 75 -130 88 -151 17 -29 30 -40 47 -40 24 0
39 21 167 220 36 57 90 141 173 270 26 41 64 100 83 130 19 30 54 84 77 120
23 36 58 90 77 120 19 30 57 89 83 130 56 87 104 162 153 240 19 30 58 91 87
135 28 44 67 105 87 135 19 30 60 93 90 140 30 47 60 95 66 106 6 12 23 24 36
26 21 4 30 -2 53 -40 15 -24 60 -93 98 -153 39 -60 92 -143 119 -186 68 -107
131 -206 183 -285 109 -170 138 -215 158 -248 12 -19 47 -73 77 -120 30 -47
72 -112 93 -145 21 -33 57 -89 80 -125 23 -36 58 -90 77 -120 67 -105 112
-175 159 -248 26 -40 49 -77 51 -83 2 -5 16 -11 32 -12 23 -2 32 4 46 28 10
17 40 68 68 115 28 47 90 154 139 238 48 84 99 173 113 196 53 92 240 425 280
501 24 44 51 92 61 107 11 14 19 29 19 32 0 3 41 78 90 167 50 89 90 163 90
165 0 2 32 60 70 129 39 69 70 127 70 130 0 3 22 45 49 93 27 48 77 141 111
207 34 66 97 185 138 265 213 408 576 1130 787 1565 156 322 212 439 250 520
21 44 63 134 95 200 32 66 83 179 115 250 32 72 61 135 65 140 7 10 89 195
145 325 15 36 35 83 44 105 37 84 61 142 86 210 14 39 34 90 45 115 10 25 23
61 28 80 6 19 23 67 37 105 59 157 94 273 154 500 55 205 70 268 76 315 4 25
13 70 20 100 23 92 48 377 48 530 0 209 -41 472 -92 585 -5 11 -25 55 -45 98
-143 306 -443 522 -826 593 -105 20 -548 29 -745 15 -227 -15 -497 -64 -730
-132 -210 -61 -491 -153 -600 -197 -27 -11 -102 -41 -165 -66 -63 -25 -124
-50 -135 -55 -11 -6 -54 -24 -95 -41 -129 -54 -193 -81 -237 -101 -24 -10 -46
-19 -50 -19 -5 -1 -26 -9 -48 -20 -22 -11 -44 -19 -49 -20 -5 0 -27 -9 -50
-20 -23 -10 -75 -33 -116 -50 -41 -18 -93 -40 -115 -49 -55 -24 -126 -54 -215
-91 -41 -17 -88 -38 -103 -46 -16 -9 -54 -18 -86 -21 -53 -5 -67 -1 -177 46
-138 60 -181 79 -284 121 -41 17 -83 35 -92 40 -9 5 -56 25 -105 44 -48 19
-126 51 -173 71 -47 20 -101 43 -121 50 -20 7 -45 18 -55 24 -25 13 -112 51
-144 61 -14 5 -63 25 -110 45 -47 20 -125 52 -175 71 -49 19 -99 39 -110 44
-45 21 -395 135 -490 161 -38 10 -97 25 -130 34 -33 8 -85 22 -115 30 -118 32
-403 75 -555 85 -147 9 -402 11 -550 3z m483 -193 c319 -22 635 -91 1087 -237
129 -42 210 -73 520 -200 61 -25 131 -54 158 -64 26 -11 55 -23 65 -29 9 -5
44 -20 77 -34 124 -52 212 -88 260 -108 28 -11 64 -26 80 -33 17 -8 64 -28
105 -45 41 -17 95 -40 120 -50 25 -10 79 -33 120 -50 41 -18 94 -41 118 -52
29 -14 60 -20 95 -18 118 4 145 2 173 -13 16 -9 56 -27 89 -41 110 -46 300
-127 330 -141 128 -60 304 -127 334 -127 20 1 86 22 146 47 61 26 124 51 140
57 17 6 35 14 40 18 6 5 51 24 100 43 50 20 128 52 175 72 47 20 103 43 124
51 22 8 44 18 50 23 6 5 22 12 36 16 14 4 39 13 55 20 130 58 446 162 655 216
278 73 670 117 881 99 155 -13 183 -18 263 -48 97 -36 153 -94 186 -192 24
-71 25 -86 25 -305 0 -200 -3 -246 -23 -350 -62 -318 -163 -667 -277 -963 -14
-34 -36 -91 -50 -127 -50 -131 -77 -199 -86 -214 -4 -9 -31 -70 -60 -136 -61
-141 -92 -211 -124 -280 -108 -228 -145 -307 -145 -310 0 -4 -19 -43 -160
-340 -121 -254 -217 -450 -486 -990 -296 -596 -464 -924 -636 -1245 -61 -112
-151 -283 -176 -330 -12 -25 -33 -63 -45 -85 -13 -22 -38 -69 -57 -105 -56
-107 -221 -404 -229 -413 -18 -18 -59 20 -111 101 -30 48 -82 130 -115 182
-34 52 -83 129 -109 170 -26 41 -72 113 -102 160 -30 47 -73 114 -96 150 -22
36 -60 94 -83 130 -70 109 -130 202 -161 254 -33 55 -71 96 -89 96 -6 0 -27
-24 -45 -52 -39 -62 -78 -124 -145 -228 -26 -41 -64 -100 -83 -130 -19 -30
-54 -84 -77 -120 -75 -117 -80 -125 -91 -151 -7 -16 -8 -32 -3 -40 5 -8 9 -29
9 -48 0 -35 -20 -71 -148 -271 -31 -47 -71 -110 -90 -140 -19 -30 -55 -86 -80
-125 -67 -103 -124 -193 -164 -255 -19 -30 -57 -89 -83 -130 -26 -41 -64 -100
-83 -130 -19 -30 -54 -84 -77 -120 -23 -36 -58 -90 -77 -120 -224 -353 -216
-341 -242 -329 -16 8 -66 86 -157 246 -74 130 -146 256 -161 282 -15 25 -35
62 -46 81 -54 100 -103 190 -182 330 -93 165 -108 193 -245 450 -48 91 -91
170 -95 175 -4 6 -37 66 -72 135 -36 69 -95 181 -131 251 -173 328 -331 639
-568 1114 -94 187 -174 347 -180 355 -5 8 -13 25 -19 37 -10 24 -91 193 -205
428 -40 83 -87 182 -105 220 -18 39 -62 131 -97 205 -36 74 -74 155 -85 180
-11 25 -39 83 -60 130 -39 83 -86 184 -113 245 -8 17 -37 84 -65 150 -29 66
-60 138 -70 160 -9 22 -36 87 -58 145 -23 58 -55 140 -72 183 -16 43 -30 83
-30 89 0 5 -7 24 -15 41 -41 88 -161 489 -216 722 -73 309 -106 689 -80 903
52 422 235 682 574 816 209 83 482 111 845 86z"/>
<path d="M7210 19562 c-13 -4 -99 -40 -185 -77 -16 -7 -68 -30 -115 -50 -47
-20 -104 -46 -127 -56 -77 -34 -151 -66 -303 -129 -72 -30 -129 -56 -195 -86
-16 -7 -64 -27 -105 -44 -41 -17 -88 -37 -105 -45 -44 -20 -370 -162 -440
-192 -83 -35 -143 -61 -190 -83 -55 -26 -116 -52 -205 -89 -78 -33 -98 -42
-190 -84 -76 -35 -150 -68 -245 -107 -44 -19 -88 -41 -98 -49 -25 -21 -16 -60
27 -125 34 -52 102 -159 164 -256 19 -30 55 -86 80 -125 83 -129 135 -210 157
-245 12 -19 47 -73 77 -120 30 -47 72 -112 93 -145 21 -33 58 -91 83 -130 67
-103 124 -193 164 -255 19 -30 57 -89 83 -130 26 -41 64 -100 83 -130 19 -30
54 -84 77 -120 23 -36 58 -90 77 -120 19 -30 56 -88 81 -127 26 -40 68 -106
94 -145 25 -40 60 -95 78 -123 63 -98 171 -267 239 -373 38 -59 83 -129 101
-157 18 -27 54 -84 80 -125 26 -41 62 -97 80 -125 68 -107 110 -173 160 -250
28 -44 67 -105 87 -135 19 -30 55 -86 80 -125 25 -38 83 -131 130 -205 47 -74
105 -165 129 -202 24 -37 67 -103 94 -147 66 -106 79 -107 142 -8 25 39 70
108 98 152 28 44 73 115 101 158 27 43 80 125 118 184 45 69 69 115 68 133 0
15 -18 54 -40 86 -21 33 -55 85 -76 117 -61 96 -100 157 -172 269 -119 186
-234 365 -311 486 -20 31 -55 86 -78 122 -23 36 -58 90 -77 120 -19 30 -57 89
-83 130 -26 41 -64 100 -83 130 -19 30 -55 87 -80 125 -67 103 -124 193 -164
255 -19 30 -57 89 -83 130 -26 41 -64 100 -83 130 -19 30 -54 84 -77 120 -23
36 -58 90 -77 120 -19 30 -59 93 -90 140 -30 47 -76 120 -104 163 -27 43 -80
126 -118 185 -38 59 -85 132 -104 162 -19 30 -47 74 -63 96 -38 58 -26 78 76
121 44 18 98 42 120 53 44 21 100 45 190 83 104 44 298 128 350 152 28 12 93
41 145 63 165 71 334 143 375 161 46 20 109 47 215 91 79 33 145 62 195 85 17
8 64 28 105 45 95 39 164 69 215 91 22 9 74 32 115 49 41 17 93 40 115 50 22
10 53 22 68 26 31 7 57 48 41 63 -5 5 -43 23 -84 40 -41 18 -93 41 -116 51
-23 11 -44 20 -48 20 -4 0 -26 8 -49 19 -23 10 -76 33 -117 50 -41 18 -88 39
-105 47 -16 7 -109 47 -205 88 -169 71 -228 89 -260 78z"/>
<path d="M8770 19233 c-8 -3 -33 -13 -55 -23 -22 -10 -52 -23 -67 -29 -36 -14
-39 -57 -5 -71 122 -50 206 -87 292 -126 17 -7 84 -36 150 -65 66 -28 192 -82
280 -121 88 -38 183 -79 210 -90 79 -33 136 -58 190 -83 79 -37 134 -61 215
-94 41 -18 89 -38 105 -45 17 -8 55 -25 85 -39 121 -54 149 -69 160 -82 15
-18 8 -32 -175 -315 -23 -36 -58 -90 -77 -120 -19 -30 -56 -88 -81 -127 -26
-40 -68 -106 -94 -145 -25 -40 -62 -98 -81 -128 -19 -30 -54 -84 -77 -120 -23
-36 -58 -90 -77 -120 -19 -30 -56 -88 -81 -127 -26 -40 -68 -106 -94 -145 -25
-40 -62 -98 -81 -128 -19 -30 -54 -84 -77 -120 -23 -36 -58 -90 -77 -120 -19
-30 -57 -89 -83 -130 -26 -41 -64 -100 -83 -130 -19 -30 -55 -85 -79 -122 -23
-38 -63 -98 -86 -135 -24 -38 -60 -93 -79 -123 -19 -30 -57 -89 -83 -130 -26
-41 -64 -100 -83 -130 -19 -30 -55 -85 -79 -122 -23 -38 -63 -98 -86 -135 -24
-38 -60 -93 -79 -123 -19 -30 -57 -89 -83 -130 -26 -41 -64 -100 -83 -130 -19
-30 -45 -71 -58 -90 -33 -51 -37 -80 -17 -117 10 -17 28 -50 41 -73 21 -37 26
-41 50 -35 15 3 28 10 30 15 2 5 25 42 51 82 26 40 63 98 83 128 19 30 57 89
83 130 46 71 66 104 152 238 20 31 61 95 91 142 30 47 65 101 77 120 12 19 47
73 77 120 30 47 71 111 91 143 86 133 106 166 152 237 26 41 64 100 83 130 20
30 59 91 87 135 29 44 68 106 88 138 86 133 106 166 152 237 26 41 64 100 83
130 19 30 54 84 77 120 23 36 58 90 77 120 34 54 78 123 173 270 26 41 64 100
83 130 19 30 54 84 77 120 23 36 58 90 77 120 34 53 79 124 173 270 25 39 66
103 92 143 25 39 61 95 79 122 52 79 59 101 43 121 -8 10 -34 26 -59 37 -117
51 -138 60 -177 78 -142 64 -341 151 -798 349 -162 70 -205 89 -240 105 -16 8
-64 28 -105 46 -41 17 -93 39 -115 49 -22 10 -92 41 -156 69 -109 48 -158 59
-199 44z"/>
<path d="M26509 19168 l0 -1243 -42 50 c-264 313 -539 477 -892 532 -77 11
-145 14 -295 9 -208 -6 -293 -17 -460 -61 -582 -153 -1079 -562 -1350 -1111
l-60 -120 25 -82 c33 -112 71 -287 86 -402 19 -138 15 -483 -8 -650 l-18 -135
-93 -3 -94 -3 6 -27 c4 -15 20 -71 37 -124 25 -83 33 -99 53 -104 22 -5 23 -9
14 -35 -9 -25 -3 -43 51 -150 184 -365 440 -646 786 -864 271 -171 586 -276
912 -304 390 -35 678 32 955 221 89 60 289 248 356 333 l31 40 1 -253 0 -252
483 2 482 3 3 2988 2 2987 -485 0 -485 0 -1 -1242z m-884 -1612 c174 -45 305
-118 438 -245 167 -159 273 -349 328 -591 29 -124 36 -374 15 -505 -75 -452
-358 -792 -761 -912 -83 -24 -104 -27 -275 -27 -171 -1 -192 1 -282 26 -380
106 -697 431 -798 817 -86 331 -26 698 161 973 180 263 454 440 755 488 104
16 307 4 419 -24z"/>
<path d="M28243 19915 c-88 -19 -157 -59 -236 -136 -99 -98 -147 -214 -147
-353 1 -304 277 -532 587 -486 114 17 190 55 273 138 153 153 191 376 98 571
-38 81 -140 187 -217 225 -103 52 -236 68 -358 41z"/>
<path d="M51154 19915 c-173 -37 -323 -184 -369 -360 -90 -348 208 -669 572
-615 114 17 190 55 272 138 78 77 114 145 137 252 37 175 -19 348 -153 470
-122 112 -286 153 -459 115z"/>
<path d="M48880 19045 l0 -625 -295 0 -295 0 0 -250 0 -250 -73 82 c-255 287
-658 484 -1099 538 -61 8 -170 10 -295 7 -162 -4 -220 -10 -322 -31 -295 -63
-567 -203 -754 -389 -229 -228 -337 -466 -354 -783 -26 -483 222 -850 743
-1101 192 -92 351 -145 699 -233 324 -81 404 -108 477 -158 54 -37 115 -104
129 -140 32 -82 27 -207 -11 -282 -45 -87 -187 -182 -323 -216 -89 -22 -290
-29 -382 -15 -225 37 -475 185 -579 343 l-17 26 -407 -175 c-224 -96 -408
-176 -411 -178 -2 -2 13 -34 33 -71 262 -476 878 -784 1569 -784 495 0 966
221 1238 583 73 97 151 255 178 361 57 221 47 493 -25 671 -58 142 -178 298
-321 417 -262 218 -729 431 -1216 554 -350 88 -453 164 -465 341 -13 208 118
354 373 414 123 29 353 24 460 -11 183 -59 352 -176 450 -314 l20 -28 339 201
c186 111 340 201 342 201 2 0 4 -67 4 -150 l0 -150 295 0 295 0 2 -1507 3
-1508 482 -3 483 -2 2 1507 3 1508 388 3 387 2 0 485 0 485 -390 0 -390 0 0
625 0 625 -485 0 -485 0 0 -625z"/>
<path d="M21195 18550 c-964 -93 -1730 -912 -1805 -1931 -28 -388 45 -775 210
-1114 225 -459 620 -833 1065 -1008 416 -164 892 -176 1319 -33 419 140 816
460 1060 856 73 117 129 231 119 240 -11 9 -973 233 -979 227 -2 -2 -20 -26
-39 -53 -82 -115 -243 -253 -370 -316 -211 -105 -485 -116 -728 -28 -230 84
-442 284 -549 518 -23 51 -78 204 -78 218 0 2 656 4 1459 4 l1458 0 7 53 c33
277 10 580 -65 850 -225 811 -843 1387 -1609 1502 -129 19 -355 27 -475 15z
m345 -855 c267 -51 500 -212 660 -456 77 -117 150 -298 150 -371 0 -17 -45
-18 -980 -18 -539 0 -980 2 -980 4 0 21 58 195 84 251 73 158 227 342 364 434
102 69 240 130 338 151 109 23 262 25 364 5z"/>
<path d="M30895 18524 c-16 -2 -72 -9 -124 -15 -52 -6 -146 -24 -210 -39 -677
-166 -1222 -671 -1445 -1340 -204 -614 -111 -1301 249 -1839 267 -400 658
-703 1100 -850 389 -130 802 -145 1103 -40 215 75 432 240 575 437 33 45 61
81 63 80 1 -2 12 -107 24 -233 11 -127 23 -236 25 -243 4 -10 106 -12 487 -10
l483 3 5 890 c3 490 8 862 12 827 34 -287 164 -634 330 -882 340 -506 866
-841 1448 -921 138 -19 414 -17 526 4 327 60 591 223 837 517 l37 45 -3 -350
c-3 -326 -5 -355 -26 -429 -52 -183 -162 -337 -328 -455 -205 -147 -434 -226
-722 -251 -223 -20 -394 11 -587 105 -248 120 -442 314 -549 549 -30 66 -37
75 -52 68 -10 -5 -205 -94 -433 -197 -228 -103 -419 -191 -424 -196 -13 -12
101 -242 175 -352 151 -227 374 -448 604 -602 407 -272 833 -388 1305 -357
432 29 826 157 1159 376 357 234 631 576 761 950 17 49 43 143 57 210 l27 121
3 2158 3 2157 -485 0 -485 0 0 -241 0 -241 -41 54 c-168 216 -448 410 -689
478 -308 86 -714 62 -1070 -62 -720 -252 -1264 -916 -1374 -1676 -13 -88 -14
-12 -15 796 l-1 892 -490 0 -490 0 5 -37 c8 -57 35 -389 35 -429 l0 -35 -92
96 c-105 110 -206 195 -328 273 -255 165 -467 230 -775 237 -93 2 -183 1 -200
-1z m390 -949 c202 -33 379 -118 528 -255 166 -152 295 -397 343 -655 22 -119
23 -349 1 -470 -67 -373 -282 -674 -590 -825 -163 -80 -237 -95 -457 -94 -171
0 -192 3 -275 28 -201 60 -365 163 -515 323 -138 148 -229 313 -282 514 -20
74 -23 109 -23 289 0 194 2 210 28 305 89 318 290 574 577 733 183 101 443
143 665 107z m4192 0 c211 -34 389 -130 548 -297 174 -180 280 -393 321 -643
19 -121 15 -361 -10 -473 -83 -379 -338 -703 -648 -822 -143 -55 -198 -64
-383 -64 -146 0 -182 3 -255 22 -399 108 -726 468 -805 886 -75 395 32 778
296 1060 251 269 587 388 936 331z"/>
<path d="M39690 18520 c-333 -41 -635 -180 -862 -399 l-58 -55 0 85 c0 47 -3
127 -6 177 l-7 92 -483 0 -484 0 0 -1372 c0 -755 3 -1653 7 -1996 l6 -622 481
2 481 3 6 1205 c6 1297 3 1233 59 1373 114 278 339 461 637 518 100 19 301 7
399 -24 270 -84 468 -279 562 -552 40 -119 42 -173 42 -1371 l0 -1154 485 0
485 0 1 923 c1 821 3 910 15 817 52 -405 190 -745 432 -1065 66 -87 254 -276
352 -355 238 -190 500 -315 785 -376 400 -85 840 -38 1193 127 437 203 776
540 992 984 132 270 195 518 215 835 7 119 -8 362 -30 493 -144 830 -787 1519
-1562 1676 -549 111 -1098 -10 -1543 -340 -102 -75 -289 -256 -373 -359 -205
-254 -367 -599 -431 -920 -14 -69 -29 -165 -33 -215 -7 -74 -9 -37 -14 210 -5
248 -9 318 -27 401 -63 308 -202 564 -432 795 -231 232 -488 372 -808 439
-112 24 -363 34 -482 20z m3975 -989 c354 -93 649 -406 752 -800 37 -142 44
-394 14 -539 -92 -444 -401 -782 -796 -870 -105 -23 -319 -20 -417 6 -353 95
-638 372 -747 727 -70 227 -70 502 0 737 99 335 365 622 663 718 167 55 371
62 531 21z"/>
<path d="M13152 18432 c2 -4 300 -897 663 -1985 l660 -1977 484 2 484 3 424
1280 c234 704 428 1283 432 1287 3 4 200 -573 436 -1282 l430 -1290 484 2 484
3 659 1975 c362 1086 658 1978 658 1983 0 4 -212 6 -472 5 l-472 -3 -427
-1275 c-236 -701 -430 -1279 -432 -1285 -2 -5 -197 569 -433 1278 l-429 1287
-482 0 -481 0 -429 -1285 c-235 -706 -430 -1281 -434 -1277 -3 4 -199 582
-434 1285 l-429 1277 -474 0 c-260 0 -472 -4 -470 -8z"/>
<path d="M52022 18416 c2 -7 323 -453 713 -990 391 -537 710 -983 710 -991 0
-8 -323 -457 -717 -999 -395 -541 -718 -989 -718 -995 0 -8 171 -11 588 -11
l589 0 20 23 c11 12 206 278 433 590 255 353 416 565 422 559 5 -5 199 -270
431 -588 l422 -579 598 -3 c328 -1 597 0 597 3 0 3 -326 453 -725 1000 -399
547 -725 997 -725 1000 0 3 322 448 715 989 393 542 715 989 715 995 0 8 -172
11 -588 11 l-589 0 -20 -22 c-11 -13 -199 -268 -418 -568 -218 -300 -403 -551
-410 -558 -10 -11 -89 91 -431 560 -230 315 -423 576 -428 580 -6 4 -276 8
-599 8 -489 0 -588 -2 -585 -14z"/>
<path d="M27880 16425 l0 -1995 483 2 482 3 3 1993 2 1992 -485 0 -485 0 0
-1995z"/>
<path d="M50790 16425 l0 -1995 483 2 482 3 3 1993 2 1992 -485 0 -485 0 0
-1995z"/>
</g>
</svg>
