<svg fill="currentColor" width="800px" height="800px" viewBox="0 -1.01 46.011 46.011" xmlns="http://www.w3.org/2000/svg">
 <g>
  <path fill-opacity="0.5" stroke="#000" id="svg_6" d="m-17.83589,38.07843l0,0c0,-14.87193 12.05609,-26.92802 26.92802,-26.92802l0,0c7.14175,0 13.991,2.83705 19.04098,7.88703c5.04999,5.04999 7.88704,11.89923 7.88704,19.04099l0,0c0,14.87193 -12.05609,26.92802 -26.92802,26.92802l0,0c-14.87193,0 -26.92802,-12.05609 -26.92802,-26.92802zm13.46401,0l0,0c0,7.43597 6.02805,13.46401 13.46401,13.46401c7.43597,0 13.46401,-6.02805 13.46401,-13.46401c0,-7.43597 -6.02805,-13.46401 -13.46401,-13.46401l0,0c-7.43596,0 -13.46401,6.02805 -13.46401,13.46401z" stroke-width="0.2" fill="currentColor"/>
  <path fill="currentColor" d="m45.449,4.72c-5.937,8.827 -23.82,26.681 -23.82,26.681l-0.007,-0.007c-0.042,0.046 -0.08,0.094 -0.125,0.139a4.964,4.964 0 0 1 -4.114,1.4a6.089,6.089 0 0 1 -1.529,5.678s-7.52,9.3 -15.854,3.44c0,0 4.494,-1.259 4.885,-4.885a8.753,8.753 0 0 1 2.7,-7.04a5.741,5.741 0 0 1 5.445,-1.6a4.95,4.95 0 0 1 1.411,-4.047c0.044,-0.045 0.093,-0.083 0.139,-0.126l-0.007,-0.007s17.871,-17.857 26.711,-23.786a2.982,2.982 0 0 1 4.165,4.16zm-30.987,26.767a3.849,3.849 0 0 0 -2.733,-1.165a3.809,3.809 0 0 0 -2.744,1.171a7.277,7.277 0 0 0 -2.145,5.677a7.608,7.608 0 0 1 -2.557,4.776a7.133,7.133 0 0 0 1.285,0.116c4.75,0 8.752,-4.66 8.789,-4.7c0.001,-0.004 2.739,-3.24 0.105,-5.875zm0.538,-3.478a2.938,2.938 0 0 0 0.854,2.109a3.064,3.064 0 0 0 2.146,0.891a2.9,2.9 0 0 0 2.066,-0.874l1.554,-1.57l0.274,-0.28l-4.2,-4.2c-0.092,0.089 -0.2,0.2 -0.287,0.279l-1.554,1.537a2.931,2.931 0 0 0 -0.853,2.108zm28.726,-25.722a0.974,0.974 0 0 0 -0.693,-0.286a1.055,1.055 0 0 0 -0.635,0.222c-6.218,4.17 -18,15.367 -23.3,20.5l4.159,4.159c5.14,-5.3 16.364,-17.083 20.568,-23.332a0.974,0.974 0 0 0 -0.099,-1.263z" fill-rule="evenodd" id="svg_1"/>
 </g>
</svg>