<svg fill="currentColor" width="800px" height="800px" viewBox="0 -1.01 46.011 46.011" xmlns="http://www.w3.org/2000/svg">
 <path fill='currentColor' d="M46.443,6.719C40.506,15.546,22.623,33.4,22.623,33.4l-.007-.007c-.042.046-.08.094-.125.139a4.964,4.964,0,0,1-4.114,1.4,6.089,6.089,0,0,1-1.529,5.678s-7.52,9.3-15.854,3.44c0,0,4.494-1.259,4.885-4.885a8.753,8.753,0,0,1,2.7-7.04,5.741,5.741,0,0,1,5.445-1.6,4.95,4.95,0,0,1,1.411-4.047c.044-.045.093-.083.139-.126l-.007-.007S33.438,8.488,42.278,2.559a2.982,2.982,0,0,1,4.165,4.16ZM15.456,33.486a3.849,3.849,0,0,0-2.733-1.165,3.809,3.809,0,0,0-2.744,1.171,7.277,7.277,0,0,0-2.145,5.677,7.608,7.608,0,0,1-2.557,4.776,7.133,7.133,0,0,0,1.285.116c4.75,0,8.752-4.66,8.789-4.7C15.352,39.357,18.09,36.121,15.456,33.486Zm.538-3.478a2.938,2.938,0,0,0,.854,2.109,3.064,3.064,0,0,0,2.146.891,2.9,2.9,0,0,0,2.066-.874l1.554-1.57.274-.28-4.2-4.2c-.092.089-.2.2-.287.279L16.847,27.9A2.931,2.931,0,0,0,15.994,30.008ZM44.72,4.286A.974.974,0,0,0,44.027,4a1.055,1.055,0,0,0-.635.222c-6.218,4.17-18,15.367-23.3,20.5l4.159,4.159c5.14-5.3,16.364-17.083,20.568-23.332A.974.974,0,0,0,44.72,4.286Z" transform="translate(-0.994 -1.999)" fill-rule="evenodd"/>
 <path stroke="currentColor" id="svg_8" d="m5.53646,12.50021l10.36366,0.00388l-0.3363,0.48735l-9.68708,-0.01164l-0.34027,-0.4796l0,0zm0.07122,-6.48291l10.22517,-0.01164l0.29675,0.49995l-10.82263,0.00388l0.30071,-0.49219zm-1.0091,3.2485l12.23546,-0.01164l-0.01582,0.49995l-12.21173,-0.00776l-0.00791,-0.48055zm12.24558,0.04637c0,3.30979 -2.74659,6.00234 -6.12315,6.00234c-3.37511,0 -6.12118,-2.69304 -6.12118,-6.00234c0,-3.30932 2.74657,-6.00187 6.12118,-6.00187c3.37657,-0.00049 6.12315,2.69255 6.12315,6.00187zm-6.12267,-6.48291c-3.64453,0 -6.61029,2.90796 -6.61029,6.48243c0,3.57495 2.96577,6.48291 6.61029,6.48291c3.64651,0 6.61178,-2.90796 6.61178,-6.48291c0,-3.57446 -2.96527,-6.48243 -6.61178,-6.48243zm1.85503,6.48291c0,3.53679 -0.97727,6.00234 -1.85503,6.00234c-0.87678,0 -1.85403,-2.46555 -1.85403,-6.00234c0,-3.53776 0.97677,-6.00187 1.85403,-6.00187c0.87727,-0.00049 1.85503,2.46411 1.85503,6.00187zm-1.85503,-6.48291c-1.52252,0 -2.34413,3.34022 -2.34413,6.48243c0,3.14317 0.82161,6.48291 2.34413,6.48291c1.52254,0 2.34564,-3.34023 2.34564,-6.48291c-0.0005,-3.14221 -0.8231,-6.48243 -2.34564,-6.48243zm4.34448,6.48291c0,3.30979 -1.9496,6.00234 -4.34448,6.00234c-2.39438,0 -4.34299,-2.69304 -4.34299,-6.00234c0,-3.30932 1.94861,-6.00187 4.34299,-6.00187c2.39488,-0.00049 4.34448,2.69255 4.34448,6.00187zm-4.34448,-6.48291c-2.66431,0 -4.8331,2.90796 -4.8331,6.48243c0,3.57495 2.16878,6.48291 4.8331,6.48291c2.66531,0 4.83361,-2.90796 4.83361,-6.48291c0,-3.57446 -2.1683,-6.48243 -4.83361,-6.48243z" stroke-width="0.5" fill="none"/>
</svg>