<svg fill="currentColor" width="800px" height="800px" viewBox="0 -1.01 46.011 46.011" xmlns="http://www.w3.org/2000/svg">
    <g>
        <path id="svg_1" fill-rule="evenodd" d="m45.449,4.72c-5.937,8.827 -23.82,26.681 -23.82,26.681l-0.007,-0.007c-0.042,0.046 -0.08,0.094 -0.125,0.139a4.964,4.964 0 0 1 -4.114,1.4a6.089,6.089 0 0 1 -1.529,5.678s-7.52,9.3 -15.854,3.44c0,0 4.494,-1.259 4.885,-4.885a8.753,8.753 0 0 1 2.7,-7.04a5.741,5.741 0 0 1 5.445,-1.6a4.95,4.95 0 0 1 1.411,-4.047c0.044,-0.045 0.093,-0.083 0.139,-0.126l-0.007,-0.007s17.871,-17.857 26.711,-23.786a2.982,2.982 0 0 1 4.165,4.16zm-30.987,26.767a3.849,3.849 0 0 0 -2.733,-1.165a3.809,3.809 0 0 0 -2.744,1.171a7.277,7.277 0 0 0 -2.145,5.677a7.608,7.608 0 0 1 -2.557,4.776a7.133,7.133 0 0 0 1.285,0.116c4.75,0 8.752,-4.66 8.789,-4.7c0.001,-0.004 2.739,-3.24 0.105,-5.875zm0.538,-3.478a2.938,2.938 0 0 0 0.854,2.109a3.064,3.064 0 0 0 2.146,0.891a2.9,2.9 0 0 0 2.066,-0.874l1.554,-1.57l0.274,-0.28l-4.2,-4.2c-0.092,0.089 -0.2,0.2 -0.287,0.279l-1.554,1.537a2.931,2.931 0 0 0 -0.853,2.108zm28.726,-25.722a0.974,0.974 0 0 0 -0.693,-0.286a1.055,1.055 0 0 0 -0.635,0.222c-6.218,4.17 -18,15.367 -23.3,20.5l4.159,4.159c5.14,-5.3 16.364,-17.083 20.568,-23.332a0.974,0.974 0 0 0 -0.099,-1.263z" fill="currentColor"/>
        <rect stroke-dasharray="2,2" id="svg_2" fill="none" x="3.36494" y="2.71979" width="14" height="13.81503" stroke="currentColor"/>
        <path stroke="currentColor" id="svg_3" d="m8.35573,9.35045l1.56567,0l0.48381,-1.48738l0.48381,1.48738l1.56567,0l-1.26665,0.91924l0.48383,1.48738l-1.26665,-0.91927l-1.26665,0.91927l0.48383,-1.48738l-1.26665,-0.91924z" stroke-width="2" fill="none"/>
        <text font-weight="bold" transform="matrix(0.632032 0 0 0.632032 10.7098 17.5146)" stroke="currentColor" xml:space="preserve" text-anchor="start" font-family="'Cabin'" font-size="24" id="svg_5" y="40.54378" x="24.6674" stroke-width="0" fill="currentColor">3D</text>
    </g>
</svg>